<?xml version="1.0" encoding="utf-8"?>
<!-- Generator: Adobe Illustrator 20.0.0, SVG Export Plug-In . SVG Version: 6.00 Build 0)  -->
<svg version="1.1" id="Layer_1" xmlns="http://www.w3.org/2000/svg" xmlns:xlink="http://www.w3.org/1999/xlink" x="0px" y="0px"
	 viewBox="0 0 140 29.3" style="enable-background:new 0 0 140 29.3;" xml:space="preserve">
<style type="text/css">
	.st0{fill:#3C557C;}
</style>
<g>
	<g>
		<g>
			<path class="st0" d="M132.6,29.3H7.4c-4.1,0-7.4-2.7-7.4-5.9V5.9C0,2.7,3.3,0,7.4,0h125.2c4.1,0,7.4,2.7,7.4,5.9v17.4
				C140,26.6,136.7,29.3,132.6,29.3z M7.4,2.5c-2.6,0-4.9,1.6-4.9,3.4v17.4c0,1.9,2.2,3.4,4.9,3.4h125.2c2.6,0,4.9-1.6,4.9-3.4V5.9
				c0-1.9-2.2-3.4-4.9-3.4H7.4z"/>
		</g>
	</g>
	<g>
		<path class="st0" d="M25.8,18.9c0,0-0.1,0-0.1,0c0,0-0.1,0-0.1,0c-0.1,0-0.3,0.1-0.7,0.3c-0.4,0.2-0.8,0.4-1.4,0.7
			c-0.6,0.2-1.2,0.5-2,0.6c-0.7,0.2-1.5,0.3-2.3,0.3c-1,0-2.1-0.1-3-0.4c-1-0.3-1.8-0.7-2.6-1.2c-0.7-0.6-1.3-1.2-1.8-2.1
			c-0.4-0.8-0.6-1.8-0.6-2.9c0-1.1,0.2-2.1,0.6-2.9c0.4-0.8,1-1.5,1.8-2.1c0.7-0.6,1.6-1,2.6-1.3c1-0.3,2-0.4,3-0.4
			c0.8,0,1.6,0.1,2.3,0.2c0.7,0.1,1.3,0.3,1.8,0.4c0.5,0.1,0.9,0.3,1.2,0.4C24.8,8.6,25,8.7,25,8.7c0.1,0,0.2,0,0.2-0.1
			c0.1-0.1,0.1-0.1,0.1-0.2l0.4,0.3l-1.9,3l-0.2-0.2c0,0,0-0.1,0-0.1c0,0,0-0.1,0-0.2c0-0.2-0.2-0.4-0.5-0.6
			c-0.3-0.2-0.7-0.4-1.1-0.5C21.5,10,21,9.8,20.5,9.7c-0.5-0.1-0.9-0.1-1.4-0.1c-0.7,0-1.4,0.1-2,0.3c-0.6,0.2-1.2,0.5-1.7,0.9
			c-0.5,0.4-0.9,0.9-1.1,1.4c-0.3,0.6-0.4,1.2-0.4,1.9c0,0.7,0.1,1.3,0.4,1.9c0.3,0.6,0.7,1,1.1,1.4c0.5,0.4,1,0.7,1.7,0.9
			c0.6,0.2,1.3,0.3,2,0.3c0.5,0,1.1-0.1,1.7-0.2c0.6-0.1,1.1-0.3,1.6-0.5c0.5-0.2,0.9-0.4,1.2-0.6c0.3-0.2,0.5-0.5,0.5-0.7
			c0-0.1,0-0.2-0.1-0.3l0.3-0.2l1.6,2.6L25.8,18.9z"/>
		<path class="st0" d="M35.4,9.6c0.9,0,1.8,0.1,2.6,0.3c0.8,0.2,1.5,0.6,2.1,1c0.6,0.5,1.1,1.1,1.4,1.8c0.3,0.7,0.5,1.5,0.5,2.5
			s-0.2,1.8-0.5,2.5c-0.3,0.7-0.8,1.3-1.4,1.8c-0.6,0.5-1.3,0.8-2.1,1c-0.8,0.2-1.7,0.3-2.6,0.3c-0.9,0-1.8-0.1-2.6-0.3
			c-0.8-0.2-1.5-0.5-2.1-1c-0.6-0.5-1.1-1-1.4-1.8c-0.3-0.7-0.5-1.5-0.5-2.5s0.2-1.8,0.5-2.5c0.3-0.7,0.8-1.3,1.4-1.8
			c0.6-0.5,1.3-0.8,2.1-1C33.7,9.7,34.5,9.6,35.4,9.6z M35.4,11.4c-0.5,0-1.1,0.1-1.6,0.3c-0.5,0.2-1,0.4-1.4,0.7
			c-0.4,0.3-0.7,0.7-1,1.2c-0.2,0.5-0.4,1-0.4,1.6c0,0.6,0.1,1.1,0.4,1.6c0.2,0.5,0.6,0.9,1,1.2c0.4,0.3,0.9,0.6,1.4,0.7
			c0.5,0.2,1,0.3,1.6,0.3c0.5,0,1-0.1,1.6-0.3c0.5-0.2,1-0.4,1.4-0.7c0.4-0.3,0.7-0.7,1-1.2c0.2-0.5,0.4-1,0.4-1.6
			c0-0.6-0.1-1.1-0.4-1.6c-0.2-0.5-0.6-0.9-1-1.2c-0.4-0.3-0.9-0.6-1.4-0.7C36.5,11.5,36,11.4,35.4,11.4z"/>
		<path class="st0" d="M51.9,9.7c1.5,0,2.6,0.2,3.5,0.7c0.8,0.5,1.2,1.3,1.2,2.5c0,0.4-0.1,0.8-0.2,1.2c-0.2,0.3-0.4,0.7-0.7,0.9
			c-0.3,0.3-0.6,0.5-0.9,0.6c-0.3,0.2-0.7,0.3-1,0.4l2.4,3.6c0.1,0.2,0.3,0.3,0.4,0.4c0.2,0.1,0.3,0.2,0.5,0.2v0.4h-3.8v-0.4
			c0.2,0,0.3-0.1,0.3-0.2c0-0.2-0.1-0.4-0.4-0.8l-2-2.9h-3.5v3.6c0,0.1,0.1,0.2,0.2,0.3c0.1,0.1,0.2,0.1,0.3,0.1v0.4H45v-0.4
			c0.3,0,0.4-0.1,0.4-0.4v-9.3c0-0.2-0.1-0.4-0.4-0.4V9.7H51.9z M51.8,14.5c1.6,0,2.4-0.5,2.4-1.5c0-0.4-0.2-0.7-0.6-1
			c-0.4-0.2-1-0.4-1.9-0.4h-3.9v2.9H51.8z"/>
		<path class="st0" d="M67.1,9.7c1.5,0,2.6,0.2,3.5,0.7c0.8,0.5,1.2,1.3,1.2,2.5c0,0.4-0.1,0.8-0.2,1.2c-0.2,0.3-0.4,0.7-0.7,0.9
			c-0.3,0.3-0.6,0.5-0.9,0.6c-0.3,0.2-0.7,0.3-1,0.4l2.4,3.6c0.1,0.2,0.3,0.3,0.4,0.4c0.2,0.1,0.3,0.2,0.5,0.2v0.4h-3.8v-0.4
			c0.2,0,0.3-0.1,0.3-0.2c0-0.2-0.1-0.4-0.4-0.8l-2-2.9H63v3.6c0,0.1,0.1,0.2,0.2,0.3c0.1,0.1,0.2,0.1,0.3,0.1v0.4h-3.3v-0.4
			c0.3,0,0.4-0.1,0.4-0.4v-9.3c0-0.2-0.1-0.4-0.4-0.4V9.7H67.1z M67,14.5c1.6,0,2.4-0.5,2.4-1.5c0-0.4-0.2-0.7-0.6-1
			c-0.4-0.2-1-0.4-1.9-0.4h-3.9v2.9H67z"/>
		<path class="st0" d="M75.7,20.2c0.3,0,0.4,0,0.5-0.1c0.1-0.1,0.1-0.2,0.1-0.3v-9.3c0-0.1-0.1-0.2-0.1-0.3
			c-0.1-0.1-0.3-0.1-0.5-0.1V9.7h3.8v0.4c-0.5,0-0.7,0.1-0.7,0.4v9.3c0,0.2,0.2,0.4,0.7,0.4v0.4h-3.8V20.2z"/>
		<path class="st0" d="M83.4,20.2c0.4,0,0.6-0.1,0.6-0.4v-9.3c0-0.2-0.2-0.4-0.6-0.4V9.7h6.9c1,0,1.8,0.2,2.5,0.5
			c0.7,0.3,1.3,0.7,1.7,1.2c0.4,0.5,0.8,1.1,1,1.7c0.2,0.7,0.3,1.3,0.3,2s-0.1,1.4-0.3,2c-0.2,0.7-0.5,1.2-0.9,1.7
			c-0.4,0.5-1,0.9-1.7,1.2c-0.7,0.3-1.5,0.5-2.5,0.5h-7V20.2z M89.6,18.9c0.5,0,1,0,1.5-0.1c0.5-0.1,0.9-0.2,1.2-0.5
			c0.3-0.3,0.6-0.6,0.8-1.1c0.2-0.5,0.3-1.1,0.3-2c0-0.8-0.1-1.5-0.3-2c-0.2-0.5-0.5-0.8-0.8-1.1c-0.3-0.2-0.8-0.4-1.2-0.4
			c-0.5-0.1-1-0.1-1.5-0.1h-3.2v7.3H89.6z"/>
		<path class="st0" d="M104.6,9.6c0.9,0,1.8,0.1,2.6,0.3c0.8,0.2,1.5,0.6,2.1,1c0.6,0.5,1.1,1.1,1.4,1.8c0.3,0.7,0.5,1.5,0.5,2.5
			s-0.2,1.8-0.5,2.5c-0.3,0.7-0.8,1.3-1.4,1.8c-0.6,0.5-1.3,0.8-2.1,1c-0.8,0.2-1.7,0.3-2.6,0.3s-1.8-0.1-2.6-0.3s-1.5-0.5-2.1-1
			c-0.6-0.5-1.1-1-1.4-1.8C98.1,17,98,16.2,98,15.2s0.2-1.8,0.5-2.5c0.3-0.7,0.8-1.3,1.4-1.8c0.6-0.5,1.3-0.8,2.1-1
			C102.8,9.7,103.7,9.6,104.6,9.6z M104.6,11.4c-0.5,0-1.1,0.1-1.6,0.3c-0.5,0.2-1,0.4-1.4,0.7c-0.4,0.3-0.7,0.7-1,1.2
			c-0.2,0.5-0.4,1-0.4,1.6c0,0.6,0.1,1.1,0.4,1.6c0.2,0.5,0.6,0.9,1,1.2c0.4,0.3,0.9,0.6,1.4,0.7c0.5,0.2,1,0.3,1.6,0.3
			c0.5,0,1-0.1,1.6-0.3c0.5-0.2,1-0.4,1.4-0.7c0.4-0.3,0.7-0.7,1-1.2c0.2-0.5,0.4-1,0.4-1.6c0-0.6-0.1-1.1-0.4-1.6
			c-0.2-0.5-0.6-0.9-1-1.2c-0.4-0.3-0.9-0.6-1.4-0.7C105.6,11.5,105.1,11.4,104.6,11.4z"/>
		<path class="st0" d="M121,9.7c1.5,0,2.6,0.2,3.5,0.7c0.8,0.5,1.2,1.3,1.2,2.5c0,0.4-0.1,0.8-0.2,1.2c-0.2,0.3-0.4,0.7-0.7,0.9
			c-0.3,0.3-0.6,0.5-0.9,0.6c-0.3,0.2-0.7,0.3-1,0.4l2.4,3.6c0.1,0.2,0.3,0.3,0.4,0.4c0.2,0.1,0.3,0.2,0.5,0.2v0.4h-3.8v-0.4
			c0.2,0,0.3-0.1,0.3-0.2c0-0.2-0.1-0.4-0.4-0.8l-2-2.9H117v3.6c0,0.1,0.1,0.2,0.2,0.3c0.1,0.1,0.2,0.1,0.3,0.1v0.4h-3.3v-0.4
			c0.3,0,0.4-0.1,0.4-0.4v-9.3c0-0.2-0.1-0.4-0.4-0.4V9.7H121z M121,14.5c1.6,0,2.4-0.5,2.4-1.5c0-0.4-0.2-0.7-0.6-1
			c-0.4-0.2-1-0.4-1.9-0.4H117v2.9H121z"/>
	</g>
	<circle class="st0" cx="6.6" cy="6.9" r="1"/>
	<circle class="st0" cx="6.6" cy="22.2" r="1"/>
	<circle class="st0" cx="132.6" cy="7.6" r="1"/>
	<circle class="st0" cx="132.8" cy="21.8" r="1"/>
</g>
</svg>
