<?xml version="1.0" encoding="utf-8"?>
<!-- Generator: Adobe Illustrator 20.0.0, SVG Export Plug-In . SVG Version: 6.00 Build 0)  -->
<svg version="1.1" id="Layer_1" xmlns="http://www.w3.org/2000/svg" xmlns:xlink="http://www.w3.org/1999/xlink" x="0px" y="0px"
	 viewBox="0 0 55.9 30.1" style="enable-background:new 0 0 55.9 30.1;" xml:space="preserve">
<style type="text/css">
	.st0{fill:#8894AE;}
</style>
<g>
	<path class="st0" d="M53.8,0c1.2,0,2.1,1,2.1,2.1c0,1.2-1,2.1-2.1,2.1c-1.2,0-2.1-1-2.1-2.1C51.7,1,52.6,0,53.8,0L53.8,0z"/>
	<path class="st0" d="M47.4,0c1.2,0,2.1,1,2.1,2.1c0,1.2-1,2.1-2.1,2.1c-1.2,0-2.1-1-2.1-2.1C45.2,1,46.2,0,47.4,0L47.4,0z"/>
	<path class="st0" d="M47.4,6.5c1.2,0,2.1,1,2.1,2.1c0,1.2-1,2.1-2.1,2.1c-1.2,0-2.1-1-2.1-2.1C45.2,7.4,46.2,6.5,47.4,6.5L47.4,6.5
		z"/>
	<path class="st0" d="M40.9,6.5c1.2,0,2.1,1,2.1,2.1c0,1.2-1,2.1-2.1,2.1c-1.2,0-2.1-1-2.1-2.1C38.8,7.4,39.7,6.5,40.9,6.5L40.9,6.5
		z"/>
	<path class="st0" d="M40.9,12.9c1.2,0,2.1,1,2.1,2.1c0,1.2-1,2.1-2.1,2.1c-1.2,0-2.1-1-2.1-2.1C38.8,13.9,39.7,12.9,40.9,12.9
		L40.9,12.9z"/>
	<path class="st0" d="M34.4,12.9c1.2,0,2.1,1,2.1,2.1c0,1.2-1,2.1-2.1,2.1c-1.2,0-2.1-1-2.1-2.1C32.3,13.9,33.3,12.9,34.4,12.9
		L34.4,12.9z"/>
	<path class="st0" d="M34.4,19.4c1.2,0,2.1,1,2.1,2.1c0,1.2-1,2.1-2.1,2.1c-1.2,0-2.1-1-2.1-2.1C32.3,20.3,33.3,19.4,34.4,19.4
		L34.4,19.4z"/>
	<path class="st0" d="M28,19.4c1.2,0,2.1,1,2.1,2.1c0,1.2-1,2.1-2.1,2.1s-2.1-1-2.1-2.1C25.8,20.3,26.8,19.4,28,19.4L28,19.4z"/>
	<path class="st0" d="M28,25.8c1.2,0,2.1,1,2.1,2.1c0,1.2-1,2.1-2.1,2.1s-2.1-1-2.1-2.1C25.8,26.8,26.8,25.8,28,25.8L28,25.8z"/>
	<path class="st0" d="M21.5,12.9c1.2,0,2.1,1,2.1,2.1c0,1.2-1,2.1-2.1,2.1c-1.2,0-2.1-1-2.1-2.1C19.4,13.9,20.3,12.9,21.5,12.9
		L21.5,12.9z"/>
	<path class="st0" d="M21.5,19.4c1.2,0,2.1,1,2.1,2.1c0,1.2-1,2.1-2.1,2.1c-1.2,0-2.1-1-2.1-2.1C19.4,20.3,20.3,19.4,21.5,19.4
		L21.5,19.4z"/>
	<path class="st0" d="M15.1,6.5c1.2,0,2.1,1,2.1,2.1c0,1.2-1,2.1-2.1,2.1c-1.2,0-2.1-1-2.1-2.1C12.9,7.4,13.9,6.5,15.1,6.5L15.1,6.5
		z"/>
	<path class="st0" d="M15.1,12.9c1.2,0,2.1,1,2.1,2.1c0,1.2-1,2.1-2.1,2.1c-1.2,0-2.1-1-2.1-2.1C12.9,13.9,13.9,12.9,15.1,12.9
		L15.1,12.9z"/>
	<path class="st0" d="M8.6,0c1.2,0,2.1,1,2.1,2.1c0,1.2-1,2.1-2.1,2.1c-1.2,0-2.1-1-2.1-2.1C6.5,1,7.4,0,8.6,0L8.6,0z"/>
	<path class="st0" d="M8.6,6.5c1.2,0,2.1,1,2.1,2.1c0,1.2-1,2.1-2.1,2.1c-1.2,0-2.1-1-2.1-2.1C6.5,7.4,7.4,6.5,8.6,6.5L8.6,6.5z"/>
	<path class="st0" d="M2.1,0c1.2,0,2.1,1,2.1,2.1c0,1.2-1,2.1-2.1,2.1C1,4.3,0,3.3,0,2.1C0,1,1,0,2.1,0L2.1,0z"/>
</g>
</svg>
