<?xml version="1.0" encoding="utf-8"?>
<!-- Generator: Adobe Illustrator 20.0.0, SVG Export Plug-In . SVG Version: 6.00 Build 0)  -->
<svg version="1.1" id="Layer_1" xmlns="http://www.w3.org/2000/svg" xmlns:xlink="http://www.w3.org/1999/xlink" x="0px" y="0px"
	 viewBox="0 0 56.9 57.4" style="enable-background:new 0 0 56.9 57.4;" xml:space="preserve">
<style type="text/css">
	.st0{opacity:0.9;fill:#3C557C;}
</style>
<path class="st0" d="M38.1,21.3l2.9-2.9c2.4,1.5,5.6,1.2,7.7-0.9c2.4-2.4,2.4-6.4,0-8.8s-6.4-2.4-8.8,0c-2.1,2.1-2.4,5.3-0.9,7.7
	l-2.9,2.9C36.9,19.9,37.5,20.6,38.1,21.3z M42.3,11.2c1.1-1.1,2.9-1.1,4,0s1.1,2.9,0,4s-2.9,1.1-4,0S41.1,12.3,42.3,11.2z M28.5,0.5
	c-3.4,0-6.2,2.8-6.2,6.2c0,2.9,2,5.4,4.8,6v4.1c0.5-0.1,0.9-0.1,1.4-0.1c0.5,0,0.9,0,1.4,0.1v-4.1c2.7-0.6,4.8-3.1,4.8-6
	C34.7,3.2,31.9,0.5,28.5,0.5z M28.5,9.5c-1.6,0-2.9-1.3-2.9-2.9s1.3-2.9,2.9-2.9c1.6,0,2.9,1.3,2.9,2.9S30.1,9.5,28.5,9.5z
	 M50.8,22.7c-2.9,0-5.4,2-6,4.8h-4.1c0.1,0.5,0.1,0.9,0.1,1.4c0,0.5,0,0.9-0.1,1.4h4.1c0.6,2.7,3.1,4.8,6,4.8c3.4,0,6.2-2.8,6.2-6.2
	C57,25.6,54.2,22.7,50.8,22.7z M50.8,31.8c-1.6,0-2.9-1.3-2.9-2.9s1.3-2.9,2.9-2.9c1.6,0,2.9,1.3,2.9,2.9S52.4,31.8,50.8,31.8z
	 M28.5,41.2c-0.5,0-0.9,0-1.4-0.1v4.1c-2.7,0.6-4.8,3.1-4.8,6c0,3.4,2.8,6.2,6.2,6.2s6.2-2.8,6.2-6.3c0-2.9-2-5.4-4.8-6v-4.1
	C29.5,41.2,29,41.2,28.5,41.2z M31.4,51.2c0,1.6-1.3,2.9-2.9,2.9c-1.6,0-2.9-1.3-2.9-2.9c0-1.6,1.3-2.9,2.9-2.9
	C30.1,48.3,31.4,49.6,31.4,51.2z M39.9,49.1c2.4,2.4,6.4,2.4,8.8,0c2.4-2.4,2.4-6.4,0-8.8c-2.1-2.1-5.3-2.4-7.7-0.9l-2.9-2.9
	c-0.6,0.7-1.2,1.4-2,2l2.9,2.9C37.5,43.8,37.8,47,39.9,49.1z M42.3,42.7c1.1-1.1,2.9-1.1,4,0s1.1,2.9,0,4s-2.9,1.1-4,0
	S41.1,43.8,42.3,42.7z M0,28.9c0,3.4,2.8,6.2,6.2,6.2c2.9,0,5.4-2,6-4.8h4.1c0-0.5-0.1-0.9-0.1-1.4c0-0.5,0-0.9,0.1-1.4h-4.1
	c-0.6-2.7-3.1-4.8-6-4.8C2.8,22.7,0,25.6,0,28.9z M9.1,28.9c0,1.6-1.3,2.9-2.9,2.9s-2.9-1.3-2.9-2.9s1.3-2.9,2.9-2.9
	S9.1,27.4,9.1,28.9z M18.9,36.5l-2.9,2.9c-2.4-1.5-5.6-1.2-7.7,0.9c-2.4,2.4-2.4,6.4,0,8.8c2.4,2.4,6.4,2.4,8.8,0
	c2.1-2.1,2.4-5.3,0.9-7.7l2.9-2.9C20.2,37.9,19.5,37.3,18.9,36.5z M14.8,46.7c-1.1,1.1-2.9,1.1-4,0s-1.1-2.9,0-4s2.9-1.1,4,0
	S15.9,45.6,14.8,46.7z M17.1,8.8c-2.4-2.4-6.4-2.4-8.8,0s-2.4,6.4,0,8.8c2.1,2.1,5.3,2.4,7.7,0.9l2.9,2.9c0.6-0.7,1.2-1.4,2-2
	L18,16.5C19.5,14.1,19.2,10.9,17.1,8.8z M14.8,15.2c-1.1,1.1-2.9,1.1-4,0s-1.1-2.9,0-4s2.9-1.1,4,0S15.9,14.1,14.8,15.2z M28.5,19.4
	c-5.3,0-9.6,4.3-9.6,9.6s4.3,9.6,9.6,9.6s9.6-4.3,9.6-9.6S33.8,19.4,28.5,19.4z M31.3,32.7c-0.4,0.5-0.9,0.9-1.6,1
	c-0.3,0.1-0.4,0.2-0.4,0.5c0,0.3,0,0.6,0,0.9c0,0.2-0.1,0.4-0.4,0.4c-0.3,0-0.6,0-0.9,0c-0.3,0-0.4-0.2-0.4-0.4s0-0.4,0-0.6
	c0-0.5,0-0.5-0.5-0.5c-0.6-0.1-1.1-0.2-1.6-0.5c-0.4-0.2-0.5-0.3-0.4-0.7c0.1-0.3,0.2-0.6,0.3-0.9c0.1-0.4,0.2-0.4,0.5-0.2
	c0.6,0.3,1.2,0.5,1.8,0.5c0.4,0.1,0.8,0,1.2-0.2c0.7-0.3,0.8-1.1,0.2-1.6c-0.2-0.2-0.4-0.3-0.7-0.4c-0.6-0.3-1.3-0.5-1.9-0.8
	c-0.9-0.6-1.5-1.3-1.5-2.5c0.1-1.3,0.8-2.1,2-2.6c0.5-0.2,0.5-0.2,0.5-0.7c0-0.2,0-0.4,0-0.5c0-0.4,0.1-0.5,0.5-0.5
	c0.1,0,0.2,0,0.4,0c0.8,0,0.8,0,0.8,0.8c0,0.6,0,0.6,0.6,0.7c0.5,0.1,0.9,0.2,1.3,0.4c0.2,0.1,0.3,0.2,0.2,0.5
	c-0.1,0.4-0.2,0.7-0.3,1.1c-0.1,0.4-0.2,0.4-0.5,0.2c-0.6-0.3-1.3-0.5-2-0.4c-0.2,0-0.4,0.1-0.5,0.1c-0.6,0.3-0.7,0.9-0.2,1.3
	c0.3,0.2,0.6,0.4,0.9,0.5c0.5,0.2,1.1,0.5,1.6,0.7C32,29.2,32.4,31.3,31.3,32.7z"/>
</svg>
