<?xml version="1.0" encoding="utf-8"?>
<!-- Generator: Adobe Illustrator 20.0.0, SVG Export Plug-In . SVG Version: 6.00 Build 0)  -->
<svg version="1.1" id="Layer_1" xmlns="http://www.w3.org/2000/svg" xmlns:xlink="http://www.w3.org/1999/xlink" x="0px" y="0px"
	 viewBox="0 0 15.8 15.3" style="enable-background:new 0 0 15.8 15.3;" xml:space="preserve">
<style type="text/css">
	.st0{fill:#3C557C;}
</style>
<g>
	<g>
		<path class="st0" d="M7.8-0.2L0,4.1l0,1.7h1v5.8h13.8V5.8l1,0l0-1.7L7.8-0.2z M2.5,10V4.4l5.4-3l5.4,3.1l0,5.5L2.5,10z"/>
		<path class="st0" d="M1.6,14.1c0.2,0,0.5,0.1,0.5,0.6c0,0.5-0.4,0.6-0.5,0.6c-0.2,0-0.5-0.1-0.5-0.6C1,14.2,1.4,14.1,1.6,14.1
			 M1.6,15.1c0.1,0,0.3-0.1,0.3-0.4c0-0.3-0.2-0.4-0.3-0.4c-0.1,0-0.3,0.1-0.3,0.4C1.3,15,1.4,15.1,1.6,15.1"/>
		<path class="st0" d="M2.8,15.3H2.5v-1.1h0.5c0.2,0,0.4,0.1,0.4,0.4c0,0.1-0.1,0.4-0.4,0.4H2.8V15.3z M3,14.7
			c0.2,0,0.2-0.1,0.2-0.2c0-0.1-0.1-0.2-0.2-0.2H2.8v0.3H3z"/>
		<path class="st0" d="M4.1,15.3H3.8v-1.1h0.5c0.2,0,0.4,0.1,0.4,0.4c0,0.1-0.1,0.4-0.4,0.4H4.1V15.3z M4.3,14.7
			c0.2,0,0.2-0.1,0.2-0.2c0-0.1-0.1-0.2-0.2-0.2H4.1v0.3H4.3z"/>
		<path class="st0" d="M5.6,14.1c0.2,0,0.5,0.1,0.5,0.6c0,0.5-0.4,0.6-0.5,0.6c-0.2,0-0.5-0.1-0.5-0.6C5.1,14.2,5.5,14.1,5.6,14.1
			 M5.6,15.1c0.1,0,0.3-0.1,0.3-0.4c0-0.3-0.2-0.4-0.3-0.4c-0.1,0-0.3,0.1-0.3,0.4C5.3,15,5.5,15.1,5.6,15.1"/>
		<path class="st0" d="M6.6,14.1h0.6c0.3,0,0.4,0.2,0.4,0.3c0,0.1-0.1,0.2-0.2,0.3c0.1,0,0.1,0.1,0.1,0.3c0,0.2,0,0.2,0,0.2v0H7.3
			c0-0.1,0-0.1,0-0.2c0-0.2,0-0.2-0.2-0.2H6.8v0.4H6.6V14.1z M7.1,14.6c0.1,0,0.2,0,0.2-0.2c0-0.1,0-0.1-0.2-0.1H6.8v0.3H7.1z"/>
		<polygon class="st0" points="8.4,15.3 8.2,15.3 8.2,14.3 7.9,14.3 7.9,14.1 8.8,14.1 8.8,14.3 8.4,14.3 		"/>
		<path class="st0" d="M10.1,14.9c0,0.3-0.2,0.4-0.5,0.4c-0.1,0-0.3,0-0.4-0.1c-0.1-0.1-0.1-0.2-0.1-0.3v-0.7h0.2v0.7
			c0,0.2,0.1,0.2,0.2,0.2c0.2,0,0.2-0.1,0.2-0.2v-0.7h0.2V14.9z"/>
		<polygon class="st0" points="11.2,14.1 11.4,14.1 11.4,15.3 11.2,15.3 10.7,14.5 10.7,14.5 10.7,15.3 10.5,15.3 10.5,14.1 
			10.8,14.1 11.2,14.9 11.2,14.9 		"/>
		<rect x="11.9" y="14.1" class="st0" width="0.2" height="1.1"/>
		<polygon class="st0" points="13.1,15.3 12.8,15.3 12.8,14.3 12.5,14.3 12.5,14.1 13.4,14.1 13.4,14.3 13.1,14.3 		"/>
		<polygon class="st0" points="14.3,15.3 14.1,15.3 14.1,14.8 13.7,14.1 14,14.1 14.2,14.6 14.4,14.1 14.7,14.1 14.3,14.8 		"/>
		<polygon class="st0" points="1.9,12.7 1.3,12.7 1.3,12.9 1.9,12.9 1.9,13.1 1.3,13.1 1.3,13.4 1.9,13.4 1.9,13.6 1.1,13.6 
			1.1,12.5 1.9,12.5 		"/>
		<path class="st0" d="M3.1,13.7l-0.1-0.1c-0.1,0.1-0.2,0.1-0.3,0.1c-0.1,0-0.5-0.1-0.5-0.6c0-0.5,0.4-0.6,0.5-0.6s0.5,0.1,0.5,0.6
			c0,0.2,0,0.3-0.1,0.4l0.1,0.1L3.1,13.7z M2.8,13.2l0.1,0.1c0-0.1,0.1-0.1,0.1-0.2c0-0.3-0.2-0.4-0.3-0.4c-0.1,0-0.3,0.1-0.3,0.4
			c0,0.3,0.2,0.4,0.3,0.4c0,0,0.1,0,0.1,0l-0.1-0.1L2.8,13.2z"/>
		<path class="st0" d="M4.3,13.2c0,0.3-0.2,0.4-0.5,0.4c-0.1,0-0.3,0-0.4-0.1c-0.1-0.1-0.1-0.2-0.1-0.3v-0.7h0.2v0.7
			c0,0.2,0.1,0.2,0.2,0.2c0.2,0,0.2-0.1,0.2-0.2v-0.7h0.2V13.2z"/>
		<path class="st0" d="M4.7,13.6H4.4l0.4-1.1h0.3l0.4,1.1H5.2l-0.1-0.2H4.8L4.7,13.6z M4.8,13.2h0.3L5,12.8h0L4.8,13.2z"/>
		<polygon class="st0" points="5.9,13.4 6.5,13.4 6.5,13.6 5.7,13.6 5.7,12.5 5.9,12.5 		"/>
		<polygon class="st0" points="7.8,13.1 7.8,13.6 7.6,13.6 7.6,12.5 7.8,12.5 7.8,12.9 8.3,12.9 8.3,12.5 8.5,12.5 8.5,13.6 
			8.3,13.6 8.3,13.1 		"/>
		<path class="st0" d="M9.2,12.5c0.1,0,0.5,0.1,0.5,0.6c0,0.5-0.4,0.6-0.5,0.6c-0.1,0-0.5-0.1-0.5-0.6C8.7,12.5,9.1,12.5,9.2,12.5
			 M9.2,13.5c0.1,0,0.3-0.1,0.3-0.4c0-0.3-0.2-0.4-0.3-0.4c-0.1,0-0.3,0.1-0.3,0.4C8.9,13.4,9.1,13.5,9.2,13.5"/>
		<path class="st0" d="M10.8,13.2c0,0.3-0.2,0.4-0.5,0.4c-0.1,0-0.3,0-0.4-0.1c-0.1-0.1-0.1-0.2-0.1-0.3v-0.7h0.2v0.7
			c0,0.2,0.1,0.2,0.2,0.2c0.2,0,0.2-0.1,0.2-0.2v-0.7h0.2V13.2z"/>
		<path class="st0" d="M11.2,13.3c0,0.1,0,0.2,0.2,0.2c0.1,0,0.2,0,0.2-0.1c0-0.1-0.1-0.1-0.2-0.1l-0.1,0c-0.2,0-0.4-0.1-0.4-0.3
			c0-0.1,0.1-0.3,0.4-0.3c0.3,0,0.4,0.2,0.4,0.4h-0.2c0-0.1,0-0.2-0.2-0.2c-0.1,0-0.2,0-0.2,0.1c0,0.1,0.1,0.1,0.1,0.1l0.3,0.1
			c0.2,0,0.3,0.1,0.3,0.3c0,0.3-0.3,0.4-0.4,0.4c-0.4,0-0.5-0.2-0.5-0.4H11.2z"/>
		<rect x="12.1" y="12.5" class="st0" width="0.2" height="1.1"/>
		<polygon class="st0" points="13.2,12.5 13.5,12.5 13.5,13.6 13.2,13.6 12.8,12.8 12.8,12.8 12.8,13.6 12.5,13.6 12.5,12.5 
			12.8,12.5 13.2,13.3 13.2,13.3 		"/>
		<path class="st0" d="M14.2,13h0.5v0.6h-0.2l0-0.1c-0.1,0.1-0.1,0.2-0.4,0.2c-0.3,0-0.5-0.2-0.5-0.6c0-0.3,0.2-0.6,0.6-0.6
			c0.3,0,0.5,0.2,0.5,0.4h-0.2c0,0-0.1-0.2-0.2-0.2s-0.3,0.1-0.3,0.4c0,0.3,0.2,0.4,0.3,0.4c0.1,0,0.2,0,0.3-0.2h-0.3V13z"/>
		<rect x="5.1" y="4.7" class="st0" width="5.3" height="1.7"/>
		<rect x="5.1" y="7.1" class="st0" width="5.3" height="1.7"/>
	</g>
</g>
</svg>
