<?xml version="1.0" encoding="utf-8"?>
<!-- Generator: Adobe Illustrator 20.0.0, SVG Export Plug-In . SVG Version: 6.00 Build 0)  -->
<svg version="1.1" id="Layer_1" xmlns="http://www.w3.org/2000/svg" xmlns:xlink="http://www.w3.org/1999/xlink" x="0px" y="0px"
	 viewBox="0 0 12.4 14" style="enable-background:new 0 0 12.4 14;" xml:space="preserve">
<style type="text/css">
	.st0{fill:#3C557C;}
</style>
<g>
	<path class="st0" d="M7,13.3C6.2,13.8,5.4,14,4.5,14c-1.2,0-2.3-0.4-3.2-1.3C0.4,11.8,0,10.7,0,9.5c0-0.8,0.2-1.6,0.6-2.3
		C1,6.5,1.6,6,2.3,5.6l0.1,0.8C1.9,6.8,1.5,7.2,1.2,7.7C0.9,8.3,0.8,8.9,0.8,9.5c0,1,0.4,1.9,1.1,2.6c0.7,0.7,1.6,1.1,2.6,1.1
		c0.9,0,1.6-0.3,2.3-0.8c0.7-0.5,1.1-1.2,1.3-2l0.5,1C8.2,12.2,7.7,12.8,7,13.3z"/>
	<path class="st0" d="M9.9,12.7L8.1,8.1H3.2l-0.7-7c0-0.3,0.1-0.6,0.3-0.8C3,0.1,3.3,0,3.6,0c0.3,0,0.5,0.1,0.8,0.3
		c0.2,0.2,0.3,0.5,0.3,0.8c0,0.3-0.1,0.6-0.3,0.8C4.2,2.1,4,2.2,3.7,2.2L4,5.1h3.3v1.1H4.1l0.1,1.1h4.5l1.8,4.1l1.5-0.6l0.4,0.9
		L9.9,12.7z"/>
</g>
</svg>
