<?xml version="1.0" encoding="utf-8"?>
<!-- Generator: Adobe Illustrator 20.0.0, SVG Export Plug-In . SVG Version: 6.00 Build 0)  -->
<svg version="1.1" id="Layer_1" xmlns="http://www.w3.org/2000/svg" xmlns:xlink="http://www.w3.org/1999/xlink" x="0px" y="0px"
	 viewBox="0 0 15.2 15.1" style="enable-background:new 0 0 15.2 15.1;" xml:space="preserve">
<style type="text/css">
	.st0{fill:#3C557C;}
</style>
<g>
	<g>
		<path class="st0" d="M8,3.3c0.1-1.2,0.8-2.6,2.1-2.8c0,0,0.1,0,0.1,0c1,0,1.7,1,1.7,1.9c0.2,1.4-0.4,3.1-1.9,3.6
			C9.9,6,9.7,6.1,9.5,6C8.3,5.8,7.8,4.4,8,3.3z"/>
		<path class="st0" d="M3.2,2.1c0.1-0.8,0.8-1.6,1.6-1.6c0.1,0,0.2,0,0.4,0c1.3,0.4,2,1.8,2,3.1c0,1-0.4,2.2-1.5,2.3
			c-0.1,0-0.3,0-0.5,0C3.6,5.6,2.9,3.7,3.2,2.1z"/>
		<path class="st0" d="M2.4,10.1c-1.7-0.3-2.7-2.4-2.2-4c0.2-0.6,0.8-1,1.4-1c0.2,0,0.5,0.1,0.7,0.2C3.5,6,4.3,7.6,3.9,9
			C3.7,9.7,3.1,10.2,2.4,10.1z"/>
		<path class="st0" d="M12.8,14.3c-0.4,0.8-1.5,1-2.2,0.6c-0.9-0.3-1.8-0.9-2.8-0.7c-1.2,0.1-2.2,0.9-3.4,0.8c-1,0-1.7-1.1-1.4-2
			c0.3-1.3,0.9-2.5,1.7-3.5c0.8-0.9,1.9-1.5,3.1-1.5c0.6,0,1.1,0.1,1.6,0.5c1.3,0.8,2.1,2,2.9,3.3C12.6,12.5,13.1,13.4,12.8,14.3z"
			/>
		<path class="st0" d="M15.2,6.9c0,1.4-1.1,3-2.5,3c-1.1-0.1-1.6-1.3-1.4-2.3c0.1-1.3,1.1-2.7,2.5-2.8C14.7,4.9,15.2,6,15.2,6.9z"/>
	</g>
</g>
</svg>
