<?xml version="1.0" encoding="utf-8"?>
<!-- Generator: Adobe Illustrator 20.0.0, SVG Export Plug-In . SVG Version: 6.00 Build 0)  -->
<svg version="1.1" id="Layer_1" xmlns="http://www.w3.org/2000/svg" xmlns:xlink="http://www.w3.org/1999/xlink" x="0px" y="0px"
	 viewBox="0 0 5.4 15.1" style="enable-background:new 0 0 5.4 15.1;" xml:space="preserve">
<style type="text/css">
	.st0{fill:#FFFFFF;}
</style>
<g>
	<path class="st0" d="M3.4,0C2.7,0.1,0.1,1.3,0,7.4c-0.1,6.4,2.7,7.8,3.4,7.8v-4.2c-0.6,0-0.7-0.6-0.8-2c-0.1-0.9-0.1-2,0-3.1
		c0.1-0.8,0.2-1.5,0.8-1.5L3.4,0L3.4,0z"/>
	<path class="st0" d="M4.9,15.1c0.3,0,0.5-0.2,0.5-0.5l0,0c0,0,0-3.3,0-3.3c0-0.3-0.2-0.5-0.5-0.5H3.7v4.3
		C3.7,15.1,4.9,15.1,4.9,15.1L4.9,15.1L4.9,15.1z"/>
	<path class="st0" d="M4.9,4.4c0.3,0,0.5-0.2,0.5-0.5l0,0c0,0,0-3.4,0-3.4C5.4,0.2,5.2,0,4.9,0H3.7v4.4C3.7,4.4,4.9,4.4,4.9,4.4
		L4.9,4.4L4.9,4.4z"/>
</g>
</svg>
