<?xml version="1.0" encoding="utf-8"?>
<!-- Generator: Adobe Illustrator 20.0.0, SVG Export Plug-In . SVG Version: 6.00 Build 0)  -->
<svg version="1.1" id="Layer_1" xmlns="http://www.w3.org/2000/svg" xmlns:xlink="http://www.w3.org/1999/xlink" x="0px" y="0px"
	 viewBox="0 0 71.1 57.4" style="enable-background:new 0 0 71.1 57.4;" xml:space="preserve">
<style type="text/css">
	.st0{opacity:0.9;fill:#3C557C;}
</style>
<path class="st0" d="M70.7,42.1L56.6,29.7c-0.3-0.3-0.8-0.4-1.2-0.3L46,31.8C45.4,32,45,32.4,45,33l-0.2,2l-4.8-1.2l0-28.1H27.5V1
	H12.2v4.7H0v50.7h0.1l16.7,0V43.8h6.5v12.6l16.7,0l0-21l4.6,1.1l-0.7,6.1c0,0.4,0.1,0.9,0.5,1.2l14,12.2c0.3,0.2,0.6,0.3,0.9,0.3
	c0.4,0,0.7-0.2,1-0.5L70.8,44c0.2-0.3,0.4-0.6,0.3-1C71.1,42.7,70.9,42.4,70.7,42.1z M12.2,39.6H5.8v-6.4h6.4V39.6z M12.2,28.9H5.8
	v-6.4h6.4V28.9z M12.2,18.3H5.8v-6.4h6.4V18.3z M23.2,33.2v6.4h-6.4v-6.4v0L23.2,33.2L23.2,33.2z M23.2,28.9h-6.4v-6.4h6.4V28.9z
	 M23.2,18.3h-6.4v-6.4h6.4V18.3z M34.2,39.6h-6.4v-6.4h6.4V39.6z M34.2,28.9h-6.4v-6.4h6.4V28.9z M34.2,18.3h-6.4v-6.4h6.4V18.3z
	 M59.1,53.1L46.7,42.2l0.6-5l2.1,0.5c0.1,0.9,0.7,1.7,1.6,1.9c1.2,0.3,2.3-0.4,2.6-1.6c0.3-1.2-0.4-2.3-1.6-2.6
	c-0.9-0.2-1.8,0.1-2.3,0.8l-2.3-0.6l0.2-1.5l7.7-2l12.5,11.1L59.1,53.1z"/>
</svg>
